<svg width="64" height="64" viewBox="0 0 64 64" fill="none" xmlns="http://www.w3.org/2000/svg">
<rect x="0.5" y="0.5" width="63" height="63" rx="2.5" stroke="#111111"/>
<g clip-path="url(#clip0_388_3395)">
<path fill-rule="evenodd" clip-rule="evenodd" d="M17.5877 33.1698L47.3387 32.8428C47.8909 32.8367 48.3337 32.3841 48.3276 31.8318C48.3215 31.2796 47.8689 30.8368 47.3167 30.8429L17.4203 31.1715L29.0001 18.8193C29.3778 18.4164 29.3574 17.7836 28.9545 17.4058C28.5515 17.0281 27.9187 17.0485 27.541 17.4515L14.3585 31.5133C13.9808 31.9162 14.0012 32.549 14.4041 32.9268L29.1086 46.7117C29.5116 47.0894 30.1444 47.069 30.5221 46.6661C30.8998 46.2632 30.8794 45.6303 30.4765 45.2526L17.5877 33.1698Z" fill="#111111"/>
</g>
<defs>
<clipPath id="clip0_388_3395">
<rect width="30" height="30" fill="white" transform="matrix(-0.707107 -0.707107 -0.707107 0.707107 53.2134 32)"/>
</clipPath>
</defs>
</svg>
