<svg width="34" height="34" viewBox="0 0 34 34" fill="none" xmlns="http://www.w3.org/2000/svg">
<g clip-path="url(#clip0_391_5486)">
<path fill-rule="evenodd" clip-rule="evenodd" d="M27.2237 18.0666L3.03236 17.8613C2.58011 17.8575 2.21793 17.4853 2.22643 17.0331C2.2348 16.5874 2.60044 16.2316 3.04616 16.2354L27.3725 16.4418L18.0366 6.43038C17.7287 6.10023 17.7468 5.58301 18.077 5.27514C18.4071 4.96727 18.9243 4.98533 19.2322 5.31548L29.7307 16.5738C30.1074 16.9777 30.0853 17.6104 29.6814 17.9871L17.7599 29.104C17.4332 29.4087 16.9213 29.3908 16.6165 29.0641C16.3118 28.7373 16.3297 28.2254 16.6565 27.9207L27.2237 18.0666Z" fill="#111111"/>
</g>
<defs>
<clipPath id="clip0_391_5486">
<rect width="24" height="24" fill="white" transform="translate(0 17) rotate(-45)"/>
</clipPath>
</defs>
</svg>
