<svg width="34" height="33" viewBox="0 0 34 33" fill="none" xmlns="http://www.w3.org/2000/svg">
<path d="M16.5244 1.08203C16.6648 0.650114 17.246 0.622951 17.4414 1.00098L17.4756 1.08203L20.79 11.2832C20.9908 11.9012 21.567 12.3193 22.2168 12.3193H32.9434C33.3975 12.3193 33.6028 12.8643 33.3037 13.167L33.2373 13.2246L24.5596 19.5293C24.0667 19.8874 23.842 20.5048 23.9814 21.0898L24.0146 21.2061L27.3291 31.4082C27.469 31.8398 27.0149 32.2032 26.6348 32.0127L26.5596 31.9668L17.8818 25.6621C17.3889 25.304 16.7321 25.2813 16.2188 25.5947L16.1182 25.6621L7.44043 31.9668C7.07309 32.2337 6.58649 31.9137 6.65039 31.4932L6.6709 31.4082L9.98535 21.2061C10.1735 20.6269 9.9924 19.9959 9.53613 19.6045L9.44043 19.5293L0.762695 13.2246C0.370838 12.9399 0.572279 12.3193 1.05664 12.3193H11.7832C12.3925 12.3193 12.9369 11.9518 13.168 11.3965L13.21 11.2832L16.5244 1.08203Z" stroke="#111111"/>
</svg>
