<svg width="38" height="38" viewBox="0 0 38 38" fill="none" xmlns="http://www.w3.org/2000/svg">
<path d="M19.0007 0.000656128C19.5529 0.000656128 20.0006 0.448481 20.0007 1.00066V18.0007H37.0007C37.5529 18.0007 38.0005 18.4485 38.0007 19.0007C38.0007 19.5529 37.553 20.0007 37.0007 20.0007H20.0007V37.0007C20.0007 37.5529 19.553 38.0007 19.0007 38.0007C18.4486 38.0004 18.0007 37.5528 18.0007 37.0007V20.0007H1.00073C0.448557 20.0005 0.000732468 19.5529 0.000732422 19.0007C0.000941538 18.4486 0.448686 18.0008 1.00073 18.0007H18.0007V1.00066C18.0009 0.44861 18.4487 0.000865245 19.0007 0.000656128Z" fill="#C5358C"/>
</svg>
