<svg width="17" height="18" viewBox="0 0 17 18" fill="none" xmlns="http://www.w3.org/2000/svg">
<path fill-rule="evenodd" clip-rule="evenodd" d="M9.93124 5.96838C9.93124 8.16092 8.1549 9.93675 5.96562 9.93675C3.77634 9.93675 2 8.16092 2 5.96838C2 3.77583 3.77634 2 5.96562 2C8.1549 2 9.93124 3.77583 9.93124 5.96838ZM8.79991 11.2214C7.95682 11.6777 6.99146 11.9368 5.96562 11.9368C2.6709 11.9368 0 9.26462 0 5.96838C0 2.67213 2.6709 0 5.96562 0C9.26034 0 11.9312 2.67213 11.9312 5.96838C11.9312 7.51171 11.3457 8.91823 10.3848 9.97772L16.9989 16.5845L15.5854 17.9995L8.79991 11.2214Z" fill="white"/>
</svg>
